<svg id="Layer_1" data-name="Layer 1" xmlns="http://www.w3.org/2000/svg" viewBox="0 0 900 300"><defs><style>.cls-1{fill:#3b97d2;}</style></defs><title>Artboard 1</title><path class="cls-1" d="M185.9,147.92l27.25-27.25a91.39,91.39,0,0,0-59.82-59.82L130.88,83.3l5.42,44a23,23,0,1,1-20.45,0l5.43-44L98.82,60.85A91.41,91.41,0,0,0,39,120.67l27.25,27.25L39,175.18A91.43,91.43,0,0,0,98.82,235l27.26-27.25L153.33,235a91.41,91.41,0,0,0,59.82-59.82Z"/><path class="cls-1" d="M327.94,167.8a3.72,3.72,0,0,1,1.33.25,3.53,3.53,0,0,1,1.27.86l7.43,7.81a30.76,30.76,0,0,1-12.22,9.62,42.7,42.7,0,0,1-17.39,3.25,41.37,41.37,0,0,1-16.49-3.14,35.64,35.64,0,0,1-12.36-8.64,38,38,0,0,1-7.79-13.09A48.06,48.06,0,0,1,269,148.28a45.45,45.45,0,0,1,2.94-16.6,38.53,38.53,0,0,1,8.26-13.06A37.19,37.19,0,0,1,293,110.08a42.75,42.75,0,0,1,16.36-3,43.27,43.27,0,0,1,8.56.81,41.69,41.69,0,0,1,7.52,2.21A34.2,34.2,0,0,1,337,117.79l-6.32,8.48a8,8,0,0,1-1.44,1.41,3.73,3.73,0,0,1-2.33.64,4.1,4.1,0,0,1-1.89-.44c-.59-.3-1.22-.66-1.88-1.08L321,125.41a16.59,16.59,0,0,0-2.83-1.38,23.31,23.31,0,0,0-3.83-1.09,26.54,26.54,0,0,0-5.12-.44,20.54,20.54,0,0,0-8.51,1.72,18.64,18.64,0,0,0-6.66,5,23.16,23.16,0,0,0-4.32,8.09,36,36,0,0,0-1.53,10.95,33.51,33.51,0,0,0,1.69,11,24.35,24.35,0,0,0,4.61,8.12,19.54,19.54,0,0,0,6.79,5,20.36,20.36,0,0,0,8.31,1.71,41.36,41.36,0,0,0,4.66-.24,21.27,21.27,0,0,0,3.94-.84,15.68,15.68,0,0,0,3.44-1.55,21.94,21.94,0,0,0,3.27-2.47,6.37,6.37,0,0,1,1.44-.91A3.75,3.75,0,0,1,327.94,167.8Z"/><path class="cls-1" d="M362.37,105.7v83H345.18v-83Z"/><path class="cls-1" d="M399,130.32a33.18,33.18,0,0,1,11.92,2.05,26.24,26.24,0,0,1,9.23,5.88,26.53,26.53,0,0,1,6,9.28,33.58,33.58,0,0,1,2.13,12.28,34.2,34.2,0,0,1-2.13,12.4,26.83,26.83,0,0,1-6,9.37,26.36,26.36,0,0,1-9.23,5.93A33,33,0,0,1,399,189.59a33.38,33.38,0,0,1-12-2.08,26.78,26.78,0,0,1-9.31-5.93,26.24,26.24,0,0,1-6-9.37,34,34,0,0,1-2.14-12.4,33.38,33.38,0,0,1,2.14-12.28,26,26,0,0,1,6-9.28,26.67,26.67,0,0,1,9.31-5.88A33.6,33.6,0,0,1,399,130.32Zm0,46.52q5.92,0,8.73-4.19t2.8-12.72q0-8.55-2.8-12.7T399,143.07q-6.11,0-8.93,4.16t-2.83,12.7q0,8.53,2.83,12.72T399,176.84Z"/><path class="cls-1" d="M486.48,131.21V188.7H475.84a4.06,4.06,0,0,1-4.22-2.88l-1-3.33a34.23,34.23,0,0,1-3.44,2.91,20.87,20.87,0,0,1-3.8,2.22,22.49,22.49,0,0,1-4.38,1.44,23.56,23.56,0,0,1-5.13.53,20.12,20.12,0,0,1-8.34-1.64,17.22,17.22,0,0,1-6.13-4.57,20,20,0,0,1-3.77-6.93,28.66,28.66,0,0,1-1.27-8.76V131.21h17.18v36.48a10,10,0,0,0,1.95,6.6,7,7,0,0,0,5.71,2.32,12,12,0,0,0,5.29-1.19,21.35,21.35,0,0,0,4.8-3.24v-41Z"/><path class="cls-1" d="M549.18,105.7v83H538.54a4,4,0,0,1-4.22-2.88L533,181.44a32,32,0,0,1-3.6,3.32,22.67,22.67,0,0,1-4.08,2.58A21.18,21.18,0,0,1,520.6,189a24.11,24.11,0,0,1-5.46.59,17.74,17.74,0,0,1-8.32-2,19.08,19.08,0,0,1-6.59-5.76,29.23,29.23,0,0,1-4.36-9.24,44.94,44.94,0,0,1-1.58-12.44,38.92,38.92,0,0,1,1.78-12,29.1,29.1,0,0,1,5-9.54,23.4,23.4,0,0,1,7.78-6.29,22.11,22.11,0,0,1,10-2.27,19.6,19.6,0,0,1,7.54,1.27,20.69,20.69,0,0,1,5.55,3.44V105.7ZM532,146.62a10.88,10.88,0,0,0-4.22-3,13.4,13.4,0,0,0-4.77-.86,10.1,10.1,0,0,0-4.38.94,9,9,0,0,0-3.46,3,16,16,0,0,0-2.3,5.41,33.34,33.34,0,0,0-.83,8,37.52,37.52,0,0,0,.66,7.65,15.85,15.85,0,0,0,1.86,5,7.15,7.15,0,0,0,2.85,2.74,8.27,8.27,0,0,0,3.72.83,14.87,14.87,0,0,0,3.41-.36,12.07,12.07,0,0,0,2.8-1,11.73,11.73,0,0,0,2.41-1.7A22.1,22.1,0,0,0,532,171Z"/><path class="cls-1" d="M608.46,124.33a7.2,7.2,0,0,1-1.75,2,3.94,3.94,0,0,1-2.36.66,5.81,5.81,0,0,1-2.74-.8q-1.47-.81-3.33-1.8a26.62,26.62,0,0,0-4.24-1.8,16.85,16.85,0,0,0-5.43-.81q-5.26,0-7.85,2.25a7.65,7.65,0,0,0-2.57,6.07,5.56,5.56,0,0,0,1.55,4,13.26,13.26,0,0,0,4.07,2.78,43.7,43.7,0,0,0,5.77,2.13q3.24,1,6.62,2.16a60.08,60.08,0,0,1,6.63,2.8,22.35,22.35,0,0,1,5.77,4.11,19,19,0,0,1,4.07,6.07,21.67,21.67,0,0,1,1.55,8.62,28,28,0,0,1-1.94,10.48,24.59,24.59,0,0,1-5.62,8.51,26.19,26.19,0,0,1-9.1,5.71,34.14,34.14,0,0,1-12.28,2.08,39.25,39.25,0,0,1-7.68-.78,46.18,46.18,0,0,1-7.56-2.19,43.84,43.84,0,0,1-6.88-3.35,29.6,29.6,0,0,1-5.6-4.33l5.54-8.76a5.68,5.68,0,0,1,1.75-1.58,4.62,4.62,0,0,1,2.36-.64,6.33,6.33,0,0,1,3.35,1.06c1.13.7,2.4,1.48,3.83,2.33a31.54,31.54,0,0,0,4.9,2.33,18.48,18.48,0,0,0,6.55,1q5.1,0,7.92-2.25c1.89-1.49,2.83-3.87,2.83-7.12a6.74,6.74,0,0,0-1.55-4.6,11.77,11.77,0,0,0-4.07-2.94,37.48,37.48,0,0,0-5.74-2q-3.22-.89-6.6-2a48.16,48.16,0,0,1-6.6-2.66,21,21,0,0,1-5.74-4.16,19.39,19.39,0,0,1-4.07-6.43,25.45,25.45,0,0,1-1.55-9.51,22.53,22.53,0,0,1,1.82-8.87,23.08,23.08,0,0,1,5.38-7.71,26.57,26.57,0,0,1,8.71-5.4,32.09,32.09,0,0,1,11.81-2,45.22,45.22,0,0,1,7.23.58,38.66,38.66,0,0,1,6.68,1.72,37.14,37.14,0,0,1,5.91,2.72,27,27,0,0,1,4.9,3.58Z"/><path class="cls-1" d="M665,144.85a9.5,9.5,0,0,1-1.49,1.49,3.31,3.31,0,0,1-2,.56,4.5,4.5,0,0,1-2.31-.61l-2.3-1.36a17.44,17.44,0,0,0-3-1.36,12.82,12.82,0,0,0-4.27-.61,12,12,0,0,0-5.46,1.16,10.22,10.22,0,0,0-3.8,3.33,15.16,15.16,0,0,0-2.22,5.3,31.55,31.55,0,0,0-.72,7.06q0,8.26,3.19,12.7a10.24,10.24,0,0,0,8.79,4.44,12.3,12.3,0,0,0,4.74-.75,14.75,14.75,0,0,0,3-1.67c.81-.6,1.56-1.17,2.24-1.69a4.18,4.18,0,0,1,2.58-.77,3.55,3.55,0,0,1,3.1,1.49l5,6.16a26.94,26.94,0,0,1-5.6,5,27.61,27.61,0,0,1-6,3,30.58,30.58,0,0,1-6.18,1.5,45.16,45.16,0,0,1-6.05.42,26,26,0,0,1-10.06-2,24.63,24.63,0,0,1-8.43-5.79,27.74,27.74,0,0,1-5.76-9.34,34.88,34.88,0,0,1-2.14-12.65,35.46,35.46,0,0,1,1.86-11.61,26.34,26.34,0,0,1,5.49-9.37,25.58,25.58,0,0,1,9-6.24,31.59,31.59,0,0,1,12.39-2.27,30.26,30.26,0,0,1,11.87,2.16,28.52,28.52,0,0,1,9.2,6.32Z"/><path class="cls-1" d="M701.71,130.32a33.18,33.18,0,0,1,11.92,2.05,26.24,26.24,0,0,1,9.23,5.88,26.51,26.51,0,0,1,6,9.28A33.38,33.38,0,0,1,731,159.81a34,34,0,0,1-2.14,12.4,26.8,26.8,0,0,1-6,9.37,26.36,26.36,0,0,1-9.23,5.93,33,33,0,0,1-11.92,2.08,33.38,33.38,0,0,1-12-2.08,26.78,26.78,0,0,1-9.31-5.93,26.4,26.4,0,0,1-6-9.37,34.2,34.2,0,0,1-2.13-12.4,33.58,33.58,0,0,1,2.13-12.28,26.12,26.12,0,0,1,6-9.28,26.67,26.67,0,0,1,9.31-5.88A33.6,33.6,0,0,1,701.71,130.32Zm0,46.52q5.92,0,8.73-4.19t2.8-12.72q0-8.55-2.8-12.7t-8.73-4.16q-6.11,0-8.93,4.16T690,159.93q0,8.53,2.83,12.72T701.71,176.84Z"/><path class="cls-1" d="M753.7,138.3a29.82,29.82,0,0,1,7.68-5.9,21.31,21.31,0,0,1,10.23-2.3,17.71,17.71,0,0,1,8.32,2,19.23,19.23,0,0,1,6.6,5.77,29.38,29.38,0,0,1,4.35,9.23,44.72,44.72,0,0,1,1.58,12.39,38.24,38.24,0,0,1-1.8,12,30.19,30.19,0,0,1-5,9.53,23.15,23.15,0,0,1-7.76,6.32,21.9,21.9,0,0,1-10,2.28,19.59,19.59,0,0,1-7.54-1.28,20.24,20.24,0,0,1-5.54-3.44v22.07H737.57V131.21h10.64a4,4,0,0,1,4.22,2.88Zm1.06,34.77a11.33,11.33,0,0,0,4.21,3,13,13,0,0,0,4.77.89,10.1,10.1,0,0,0,4.38-.95,8.82,8.82,0,0,0,3.46-3,16,16,0,0,0,2.3-5.4,33.59,33.59,0,0,0,.84-8.1,37.45,37.45,0,0,0-.67-7.65,15.61,15.61,0,0,0-1.86-5,7.15,7.15,0,0,0-2.85-2.74,8.14,8.14,0,0,0-3.72-.83,12.52,12.52,0,0,0-6.21,1.38,17.41,17.41,0,0,0-4.65,4Z"/><path class="cls-1" d="M815,163q.84,7.22,4.38,10.45a13.06,13.06,0,0,0,9.15,3.24,16.39,16.39,0,0,0,5.16-.72,26.26,26.26,0,0,0,3.85-1.6c1.13-.59,2.16-1.13,3.11-1.61a6.43,6.43,0,0,1,3-.72,3.58,3.58,0,0,1,3.11,1.49l5,6.16a25.64,25.64,0,0,1-5.74,5,29.55,29.55,0,0,1-6.32,3,34,34,0,0,1-6.49,1.5,48.13,48.13,0,0,1-6.18.42,32.33,32.33,0,0,1-11.34-2,26,26,0,0,1-9.26-5.85,27.56,27.56,0,0,1-6.26-9.65,35.87,35.87,0,0,1-2.3-13.41,30.43,30.43,0,0,1,2-10.93,26.6,26.6,0,0,1,14.59-15.19,31.85,31.85,0,0,1,22.28-.5,22.73,22.73,0,0,1,8.15,5.16,23.49,23.49,0,0,1,5.33,8.29A30.49,30.49,0,0,1,852,156.65a24.22,24.22,0,0,1-.17,3.16,4.87,4.87,0,0,1-.61,1.94,2.23,2.23,0,0,1-1.19,1,5.46,5.46,0,0,1-1.91.28Zm21.63-10a15.17,15.17,0,0,0-.53-4,9.74,9.74,0,0,0-1.72-3.47,8.89,8.89,0,0,0-3.13-2.46,10.72,10.72,0,0,0-4.71-.95,10.32,10.32,0,0,0-7.66,2.8,14.73,14.73,0,0,0-3.66,8.07Z"/></svg>